<svg xmlns="http://www.w3.org/2000/svg" baseProfile="tiny" viewBox="0 0 1499 1499" overflow="visible" xmlns:v="https://vecta.io/nano"><path fill-rule="evenodd" d="M1090.72 585.5c8.21 22.35 24.63 69.73 24.63 71.19.04 2.1-12.34-1.81-15.63-2.74-4.17-6.28-24.06-70.35-26.37-77.79l-.01-.01c-1.52-4.74-.94-4.33 5.01-2.3l1.31.44c8.11 2.45 8.25 3.44 11.06 11.21h0zm-693.24 64.67c-1.23 1.19-8.92 2.48-11.3 2.75-2.85.48-4.44.74-5.02.1-.73-.82.16-3.09 2.18-8.24 2.99-7.52 5.7-15.15 8.12-22.87 4.33-11.3 8.37-22.7 12.11-34.21 2.79-8.49 3.78-11.52 5.87-13.11 4.43-2.5 8.35-2.52 14.67-5.35 1.88 3.1-25.66 78.61-26.63 80.93zm643.62-147.79l21.34 34.1 21.17 34.28c-.43.36-11.68-3.9-13.08-4.93-11.61-15.47-42.2-68.99-41.78-68.38.94-.06 9.31 3.62 12.35 4.93zm-613.95 60.34c-.72.97-13.33 5.24-14.35 5.3-5.77 7.02 37.32-58.6 42.63-67.29 2.43-1.1 12.47-5.6 13.26-5.66.54.61-39.41 65.71-41.54 67.65zm593.46-68.26c2.31 1.8 27.49 43.44 40.84 67.66 2.08 3.6 1.04 2.85-3.36 2.15-2.62-.6-28.22-4.88-30.8-5.63-.54-.61-37.09-71.31-36.91-71.49 2.31.19 25.48 4.33 30.23 7.31h0zm-550.34 61.08c-5.47 1.41-10.98 2.63-16.54 3.65-8.45 1.58-19.46 2.68-19.46 1.95 0-.49 41.35-67.59 42.26-68.57 1.1-1.16 31.32-8.52 31.32-7.61-.55 2.38-27.06 52.19-37.58 70.58h0zm513.24-69.91c-.19-.64 39.29 72.87 38.62 72.28-.61.18-16-1.22-32.96-3.05-7.64-.85-15.26-1.85-22.86-2.98-.55-.18-1.4-1.34-1.89-2.62-3.85-10.97-33.35-74.19-27.43-70.39 5.03.49 13.81 1.7 22.4 2.89l19.26 2.53c2.49.31 4.37.79 4.86 1.34h0zm-477.12 67.41c-9.76 1.18-19 1.94-30.35 2.38 6.45-12.97 34.79-65.77 38.19-71.92 6.16-1.41 18.2-2.32 25.47-3.42 7.91-1 21.93-2.78 22.27-1.76-.67 2.92-23.35 58.21-29.61 71.8l-25.97 2.92h0zm84.36-5.58l-9.62.53c-29.68 1.65-42.63 2.07-43.05 1.34-.36-.55 5.41-14.43 23.72-57.55 4.62-11.02 6.63-15.1 7.36-15.1 15.99-1.16 46.27-4.66 60.75-4.02-2.56 14.35-16.11 62.2-19.28 73.86-5.69.15-10.77.43-19.88.94h0zm393.37-98.55c9.24 6.21 41.78 39.03 45.12 42.63 5.25 10.26-50.06-45.5-45.12-42.63h0zm-507.04 34.83c-34.89 27.13 46.63-48.16 42.57-43.72 8.81-6.15-38.99 41.17-42.57 43.72h0zm484.05-50.36l47.92 48.35c2.98 3.23 5.11 5.91 4.68 5.85-11.2-2.62-27.14-4.35-33.81-13.76-12.18-13.87-28.29-30.66-39.1-44.39-1.62-2.77 16.7 3.35 20.31 3.95zm-449.45 46.04l-12.1 2.56c-14.84 3.11-16.05 3.29-16.05 2.74 1.95-2.5 41.74-42.1 51.99-52.49 5.3-1.32 18.58-4.79 20.43-4.87 3.7.7-37.04 43.03-44.27 52.06h0zm455.01-13.53c5.17 5.73 8.7 9.63 11.22 13.29 2.01 1.95-43.42-5.48-45.06-6.03-1.09-.97-37.76-51.58-36.91-52.8 1.98.11 25.27 3.18 32.7 5.28 3.85 1.41 6.93 4.92 19.51 19.26l18.54 21h0zm-405.03 6.83c-6.41.69-39.88 6.04-41.66 4.63 0-.55 38.19-44.15 45.55-52 3.2-2.01 30.05-5.17 37.03-6.27.18.24-6.32 9.68-22.8 33.13-4.48 5.91-7.33 10.11-9.36 13.09-4.05 5.95-4.83 7.1-8.76 7.42h0zm327.84-53.16c1.52 1.7 36.12 51.94 36.12 52.49-6.78 1.02-12.51-.14-19.46-.55l-39.05-3.2c-.79-.03-1.46-.05-1.69-.76 0-.37-3.71-8.65-8.27-18.45-8.45-18.15-14.23-31.67-14.23-33.37 0-.79.61-.91 3.53-.73 11.3.73 34.9 2.93 43.05 4.57h0zM608.55 469.1c-10.82.45-25.24 2.6-36.36 2.34-2.25.85 23.9-35.14 37.76-53.59 13.14-1 35.54-3.89 46.28-3.78 1.89-2.89-19.2 42.94-23.84 53.28l-23.84 1.75h0zm235.71-38.02L860.43 467c-11.88 1.5-13.56-.6-26.64-.3-11.83-1.32-36.35.83-43.24-3.65-.06-.18-8.27-41.41-7.3-50.48 1.1-1.98 41.84 1.05 53.27 1.4l7.74 17.11zM707.43 463.4c-6.47 2.38-57.31 3.24-61.75 3.04-7.7-.18-7.76-.18-7.33-1.52.3-1.04 15.81-35.32 23.35-51.58l54.18-2.01c-3.71 26.5-7.84 52.32-8.45 52.07h0zm74.98-21.73c2.74 17.35 3.34 21.8 3.04 22.17-2.01.43-67.01.85-73.03 0l8.45-52.67c-2.81-.48 43.07-.25 56.86-.24.69 5.78 2.88 19.45 4.68 30.74h0zm108.92-48.9c3.87 2.09 46.76 25.27 53.75 31.6 1.09 6.61-63.92-35.02-53.75-31.6zm-326.75 26.49c12.41-6.09 43.97-26.49 42.75-27.65-3.83-.3-78.26 42.93-42.75 27.65zm299.92-33.5c3.47-2.01 45.3 25.21 55.04 32.52 1.64 2.01-23.9-2.92-29.49-4.08l-13.68-10.84c-16.36-12.91-21.41-17.29-21.1-18.27.23-.79 2.67-.67 9.23.67h0zm-256.98 27.71c-6.32 1.15-30.25 5.13-29.74 3.96 0-.3 16.48-11.08 38.19-25.03l9.24-5.97c3.67-.5 20.01-4.32 18.12-2.13.49 1.06-27.62 22.6-35.81 29.17zm244.61-23.96l29.4 23.29c.91.91-5.84.49-24.02-1.4l-17.33-1.83c-6.87-5.97-25.11-28.19-24.99-30.14 1.71-.26 19.84 1.65 27.24 2.38l9.7 7.7h0zm-216.31 21.54c-4.87.46-19.6 2.35-19.49 1.2 1.04-1.64 30.16-24.11 37.76-29.11 2.54-2.12 7.25-2.45 11-2.72l19.28-1.91-24.57 29.84c-5.25.81-15.82 1.88-23.98 2.7h0zm170.37-32.72c.97.24 24.02 26.73 25.97 29.96.99.88-1.38.72-5.04.47l-46.1-2.35c-.43-.49-8.57-29.29-8.27-29.53.29-.31 31.37 1.09 33.44 1.45zm-107.36 28.8c-8.24.47-30.8 1.71-32.87 1.04 0-.49.36-.97 14.53-18.02l9.85-12c9.49-.73 16.42-1.22 27.18-1.64 6.45-.3 8.03-.24 8.03.43-.18 1.83-6.57 23.44-8.21 28.99-4.25.52-11.95.89-18.51 1.2zm70.14-25.93c4.99 16.62 7.11 24.36 6.75 24.72-.73.73-53.88.67-53.82-.06.38-1.57 6.23-21.86 8.39-29.35l37.16-.3 1.52 4.99zm35.94-10.48c1.58 0 13.07 3.53 13.07 3.96 0 .73-7.24-.43-11.68-1.89-3.15-1.03-3.82-2.07-1.39-2.07h0zm-112.08 1.16c11.86-5.3-2.68-1.95-6.63.06-5.95 2.62-.48 2.56 6.63-.06zm84.65-5.97c4.15 1.21 16.06 6.01 15.08 6.88-.34.41-1.26.35-9.99-.28l-.41-.03c-13.32-.78-13.3-1.26-17.45-7.12.61-.54 10.16-.12 12.77.55h0zm-45.22-.2c.43.76-3.79 4.85-4.82 6.17-5.85.19-22.12.96-23.17.43 0-.73 9.85-5.12 13.74-6.09 2.36-.61 6.98-1.03 10.24-.97 2.52-.01 3.79-.02 4.01.46zm25.46-.41c2.37 1.34 5.72 5.24 5.17 6.09-.43.73-27.06.67-28.16 0-.61-.43-.3-1.1 1.52-3.11 3.28-3.65 5.17-4.26 12.77-4.26 5.42 0 6.81.19 8.7 1.28h0zM189.26 566.07c9.93 26.49-21.36 38.88-43.24 31.42-7.3-1.95-18.18-7.25-22.26-10.84-14.96-11.94-9-37.63 8.76-42.38 17.64-5.78 51.81 6.34 56.74 21.8h0zm1139.17-11.75c-3.27 7.57-16.22 13.04-23.65 9.56-5.6-2.19-23.36-26.85-15.63-35.26 3.22-2.8 19.58-10.35 27.06-12.6 4.68 5.9 16.23 29.77 12.22 38.3zm35.09-22.77c.61 3.96-3.77 7.79-6.87 9.56-15.69 9.07-28.28-17.42-29.56-28.62.43-4.87 17.94-10.54 20.31-11.27 8.64.37 15.88 22.71 16.12 30.33zM222.34 441.73c26.03 2.19 17.94 31.54 6.69 45-3.83 4.14-5.35 3.96-18.18-2.13-12.47-5.91-14.35-7.06-14.35-8.59 1.76-9.93 14.04-36.54 25.84-34.28zM195.95 436c3.28 6.45.49 19.18-6.87 31.36-2.37 3.9-4.07 4.63-7.85 3.41-4.26-1.4-15.32-6.82-16.78-8.22-1.95-1.83-1.82-4.87.43-11.51 7.29-22.65 20.97-29.9 31.07-15.04h0zm1112.17-23.62c.19 26.49-50.97 60.55-69.2 28.8-10.33-24.21 21.52-52.06 46.64-51.46 10.22-.24 23.23 11.51 22.56 22.66h0zM276.77 358.79c.34.65-9.38 16-12.71 18.63-.73 0-3.89-3.9-10.82-13.09-6.69-8.95-12.35-17.05-12.35-17.66 0-.91 4.87.36 15.93 4.02 13.32 4.44 19.95 7.12 19.95 8.1zm1082.07 293.57c7.72-4.2 19.46-11.94 27.42-17.6-5.29-1.22-35.21-2.92-37.64-2.62-1.34.55-1.16 2.07 1.82 14.07l2.07 8.71c0 .67 1.95-.12 6.33-2.56h0zm-575.82-67.29c192.95 39.28 178.78 300.21-12.16 326.76-257.19 12.3-249.05-357.28 12.16-326.76zm-43.12 315.5c-.12-8.53 2.62-36.6 3.95-47.07 3.78.19 17.98.25 19.03.73.6 2.42 2.34 25.27 3 29.85.61 5.42 1.12 9.9 1.26 16.55-.42.67-26.81.61-27.24-.06h0zm-37.4-8.65c-11.61-4.39-12.83-4.99-12.83-6.45.49-3.05 16.48-38.12 19.76-40.92l4.26 1.52c9.91 3.47 12.47 4.63 12.47 5.54-.73 3.17-8.64 36.78-12.04 44.27-.24.18-5.54-1.59-11.62-3.96zm89.03 2.37c-2.43-7.55-9.67-36.78-10.22-43.72 5.35-2.27 10.79-4.32 16.3-6.15 3.41 3.04 19.28 38.73 19.76 41.96 0 1.04-1.28 1.52-12.22 5.24-10.09 3.47-13.13 4.01-13.62 2.67h0zm-127.76-22.77c-2.8-1.89-15.2-12.3-16.9-14.19-5.35-1.04 31.38-32.88 32.35-33.55 4.33 3.44 14.91 11.66 13.26 12.54-.97 2.56-24.63 36.23-25.66 36.6-.38.12-1.72-.49-3.05-1.4h0zm171.73-4.32c-5.9-7.98-20.31-29.53-20.86-31.24-2.34-1.35 9.95-9.89 13.8-12.97 9.82 9.83 26.41 26.09 32.29 33.13-3.71 4.32-18 16.2-20.13 16.99-.42-.01-2.73-2.69-5.1-5.91h0zm-86.84-29.6c-60.33-3.41-105.08-74.41-73.52-130.32 22.86-46.52 91.03-62.05 131.17-29.84 1.04.91 1.96 1.6 2.67 2.14 2.33 1.75 2.48 1.86-2.37 2.79-13.86 2.07-23.84 13.76-17.33 27.71 9.91 21.19 32.17 14.98 38.98-3.41 1.1-2.99 1.59-2.05 2.6-.12 34.75 54.6-16.01 137.13-82.2 131.05h0zm-124.85-9.38c-5.29-8.95-8.51-15.47-7.84-16.08 1.34-1.22 39.83-18.21 41.23-18.21 1.7 0 9.97 14.37 9.06 15.83-1.03 1.64-35.76 26.18-37.09 26.18-.37.02-2.8-3.45-5.36-7.72h0zm248.66 4.39c-9.49-5.97-30.04-20.76-31.87-22.96-2.13.12 7.91-16.26 8.33-16.2 1.03-.36 42.02 18.45 42.02 19.3 0 1.34-12.04 23.2-12.77 23.2-.24.01-2.79-1.52-5.71-3.34h0zm-266.41-46.1c-1.52-3.35-3.16-17.35-3.65-23.14-2.76-3.49 35.17-4.84 46.15-5.66.85 3.84 2.19 11.02 2.13 14.19.06 4.93-.91 5.6-11.86 8.22a621.88 621.88 0 0 0-20.76 5.52c-9.42 2.43-10.93 3.97-12.01.87zm279.18-1.8l-30.23-8.49c.97-6.52 3.22-18.33 3.4-18.09.67-.67 39.53 2.19 44.94 3.29 1.7.37 1.7.43 1.34 3.53-.67 5.05-2.8 16.26-3.77 19.73-1.03 3.65-1.52 3.78-7.54 2.19l-8.14-2.16h0zm-244.95-45.27c-7.28-1.26-39.45-1.12-38.19-5.48 0-1.7 2.74-18.27 3.71-22.35.61-2.74.79-2.86 2.25-2.5 2.61.61 36 9.68 39.83 10.84 4.99 1.3 3.41 2.31 2.33 10.35l-1.6 9.14c-1.94.07-7.72.3-8.33 0h0zm217.59-1.34l-2.55-14.92c-2.18-3.32 33.19-10.93 42.69-13.64 1.89-.37 2.01-.24 2.61 2.01.61 2.07 3.71 17.05 4.56 21.92.18 1.16 0 2.13-.43 2.5-7.42 1.43-19.18 1.49-27.49 2.62-4.34-.22-19.45 3.21-19.39-.49zm-221.42-43.48L615.91 685c-1.1.18 8.09-16.2 13.07-24.42 9.14 6.56 32.7 22.72 37.7 27.1-2.06 3.91-7.92 16.53-9.12 16.08-.6 0-10.03-4.15-21.1-9.14zm211.93 7.86c-1.22-1.34-7.42-11.81-8.21-13.95-.3-.79 2.8-3.23 12.89-10.47 14.66-10.41 23.41-16.26 24.45-16.26 1.22 0 13.44 20.34 13.44 22.35 0 .91-13.86 7.79-30.22 15.04l-10.76 4.63c-.19 0-.92-.61-1.59-1.34h0zM661.76 657.6c-8.7-8.65-15.87-16.02-15.87-16.38.85-1.58 15.75-14.13 20.67-17.23 6.69 8.89 22.87 31.79 25.36 36.23.85 1.71.85 1.77-2.07 4.57-3.95 3.84-10.22 8.59-11.31 8.59-.48-.01-8.02-7.08-16.78-15.78h0zm161.88 13.03c-4.56-3.47-9.3-7.92-9.3-8.71 0-1.4 23.47-35.26 25.72-37.15 2.6-1.37 14.26 10.35 18.61 14.13 3 2.87 1.5 2.59-2.72 7.77l-1.78 1.98c-6.08 6.7-25.11 24.72-26.15 24.72-.43 0-2.37-1.22-4.38-2.74h0zm-115.66-18.45c-4.14-9.7-18.18-35.32-18.18-41.71 1.03-.67 24.45-9.38 24.69-9.2.73.49 10.76 39.89 11.19 43.78.33 2.51-1.05 2.07-9.05 5.25-3.36 1.1-8.42 3.6-8.65 1.88h0zm81-2.38c-5.53-1.83-8.09-2.98-8.09-3.65.26-.55 1.03-4 2.1-8.74 2.9-12.92 7.96-35.46 10.67-35.28 1.4 0 22.5 7.67 23.23 8.4 1.16 1.16-17.21 41.71-18.97 41.96-.49.05-4.57-1.16-8.94-2.69h0zm-44.52-6.82c-.97 2.5-4.99-45-4.32-44.76 3.99-2.28 25.2-1.61 26.94-1.16.17 6.79-3.07 34.69-3.95 45.73-4.74.8-16.9 1.05-18.67.19zm30.23 484.42c3.65-.98 13.68-4.69 13.38-4.93-1.66-.27-17.03-.63-22.2-.86l-7.05 7.19c5.28.49 9.54.24 15.87-1.4h0zm-46.1 1.1c0-.25-.97-1.71-2.13-3.29-2.06-2.85-2.19-2.87-6.15-3.23-4.46-.19-21.24-1.89-18.48-.18 6.57 3.89 21.35 8.46 26.76 6.7h0zm28.1-3.17l2.8-3.47c-8-.19-29.51-.79-28.46 1.4 1.84 5.37 5.5 5.41 11.57 5.48 2.02.07 9.07.1 11.23.12l2.86-3.53h0zm-61.54-1.34c-26.76-11.14-12.22.18 2.13 1.16l-2.13-1.16zm110.31-1.52c15.45-5-3.59-1.89-6.02.54-2.86 2.08 3.46.31 6.02-.54zm-37.83-19.31l4.56-14.92c-.12-.06-12.1-.18-26.76-.3-26.39-.18-26.57-.18-26.57 1.03.24 2.44 5.35 21.87 7.48 28.26 7.17.61 26.09.54 36.67.67l4.62-14.74h0zm12.65 13.83c5.05-.25 15.57-.37 21.65-.31 4.78-5.81 29.2-33.25 24.45-30.2l-49.26 1.76c-1.95 4.08-8.09 25.03-8.39 27.59-.5 4.02 8.84.63 11.55 1.16zm-58.99-.73c-.24-1.59-6.14-22.84-7.6-28.08-6.75-.67-39.22-3.53-50.17-2.31-.59.29 16.72 21.41 23.41 29.59 4.79-.02 36.92 1.88 34.36.8zm100.04-1.71l12.65-1.28c3.47-.36 3.83-.61 16.42-10.11 18.42-14 26.09-20.03 25.72-20.4-4.07-.42-35.82 2.74-41.29 3.84-.55-1.83-25.42 27.95-25.36 28.74 1.58 1.41 8.85-1.11 11.86-.79h0zm-141.81-1.03c-5.48-6.8-24.01-30.38-24.75-29.11-9.85-.85-32.53-2.99-38.49-4.02-1.16-.18-2.01-.06-2.01.3 6.32 6.88 33.14 27.47 36.49 30.02 3.64 1.71 28.94 4.75 28.76 2.81h0zm179.81-4.08l6.99-1.04 48.83-31c-7.19.69-21.47 3.07-29.37 4.02l-38.01 29.54c3.48.19 7.53-1.15 11.56-1.52zm-218.31-.92c-.73-.61-31.74-25.45-35.76-28.56-2.31-1.15-22.26-4.5-29.01-4.75 3.35 2.99 31.68 21.92 40.07 27.1 6.14 3.84 7.05 4.2 13.68 5.54 2.56.31 12.8 2.76 11.02.67zm256.23-11.57v-.01c15.14-8.24 46.85-25.51 36.52-23.25-3.1.43-9.18 3.65-26.09 13.95-12.47 7.61-22.56 14.18-23.11 15.04-.67 2.18 7.62-3.13 12.68-5.73zm-292.1 3.59c-12.2-8-46.02-32.43-52.3-29.96 0 1.47 9.97 7.68 35.7 22.23l2.15 1.22c12.2 6.91 15.37 8.71 14.45 6.51h0zm107.39-19.3l-5.66-36.05c-2.01-12.36-2.37-13.94-3.53-14.37-3.28-.91-50.41-2.98-67.8-3.23 5.53 13.52 15.51 36.6 22.68 52.56l54.61 3.16-.3-2.07h0zm61.6-1.52c3.16-16.14 8.15-48.23 7.54-48.9-.43-.43-71.27-.3-71.7.18-.12 1.46 5.11 40.19 7.05 51.76 3.19.54 41.4.42 56.37.43l.74-3.47h0zm48.34 2.31c7.72-.42 7.85-.48 9.3-2.25 2.37-2.92 24.99-49.93 24.32-50.54-7.85-.44-56.58 1.18-69.08 1.22-.79 2.67-8.39 50.11-8.57 51.45 1.29 2.55 34.24.14 44.03.12h0zm37.58-2.8c18.61-1.7 21.47-2.07 23.35-2.8 1.22-.43 8.82-10.47 25.97-34.47l12.16-17.41c-19.64 1.16-58.62 3.71-58.93 4.5-1.52 1.22-25.18 49.76-25.18 51.64 6.61 1.07 14.31-1.38 22.63-1.46h0zm-207.85-1.03c-2.98-8.53-18.12-42.81-23.47-51.46l-57.41-4.32c-.55.61 1.4 3.89 8.15 13.88 6.26 9.2 24.57 34.95 26.7 37.57 2.27 1.77 6.1 1.99 10.16 2.21 9.63.81 18.76 2.12 27.42 2.79 8.7.91 8.94.85 8.45-.67h0zm267.81-6.34l6.26-1.03c10.46-11.33 48.28-52.86 46.46-52.07-7.68.52-36.03 3.65-44.76 5.24-9.38 12.77-33.73 45.08-37.03 51.64.01.55 13.63-1.22 29.07-3.78h0zm-320.35 1.65c0-1.71-35.39-51.58-36.97-52.07-11.91-1.84-34.86-6.01-43.9-5.84 0 1.03 43.18 50.78 44.94 51.7 8.59 1.84 32.04 7.52 35.93 6.21h0zm347.23-7.8l9.43-2.31c12.89-13.1 42.22-40.26 52.6-51.58 2.43-1.89-24.69 4.57-26.88 5.79-2.31 1.09-6.81 5.78-24.63 25.27l-21.95 24.54c-.37.91 1.58.61 11.43-1.71h0zm-394.84-4.26c-3.72-4.84-29.45-33.81-42.08-48.05l-19.1-4.2c-4.93-1.15-7.11-1.4-7.54-.97-1.86.14 38.44 39.8 50.41 51.88 4.98 1.34 20.41 5.78 21.47 5.66.12-.12-1.28-2.07-3.16-4.32h0zm433.15-17.29c14.29-13.04 38.31-35.93 38.31-36.54-4.68-2.25-48.16 44.15-50.77 47.25 2.88-1.95 7.57-6.26 12.46-10.71h0zm-467.94 5.42c-5.5-5.83-34.37-34.34-44.41-43.11-2.61-2.29-3.7-3.25-5.82-3.05 3.59 4.14 40.14 41.83 54.06 50.54.12 0-1.58-2.01-3.83-4.38zm356.05-26.31l50.23-3.72c1.46-.3 5.96-9.43 16.05-32.27 13.44-30.33 16.78-38.67 15.93-39.52-.49-.55-9.79-.43-24.14.24-13.06.53-46.14 1.82-47.19 3.1-.45.81-13.28 45.62-18.8 66-1.13 4.13-1.61 5.91-.97 6.57 1.99.9 5.74-.48 8.89-.4h0zm-245.43-1.52c-.12-2.01-14.96-59.62-19.09-73.56l-72.43-4.02c7.97 19.8 22.21 56.87 30.77 72.64 18.55 1.44 43.57 5.29 60.75 4.94zm315.18-4.33c12.8-1.8 23.32-2.92 36.06-4.5l38.98-71.55c-20.49 1.52-56.01 5.05-55.76 5.6-.91.97-31.26 70.21-31.26 71.31 0 .61 3.35.36 11.98-.86h0zm-382.74-2.19c.49.73-29.49-72.04-29.19-71.24-13.8-2.86-42.93-4.99-54.49-5.66-4.44-5.24 37.16 73.5 36.67 71.19 1.12.63 28.86 4.01 36.26 5.3 5.93 1 9.98 1.69 10.75.41zm437.05-6.15c7.66-1.64 17.7-4.32 18.66-4.93 1.65-1.16 43.79-68.08 43.18-68.69-.36-.43-34.97 4.93-35.51 5.48-1.04 1.03-37.89 68.69-37.89 69.54 0 .91 1.83.73 11.56-1.4h0zm-491.96-1.95c2.37.43-26.45-52.18-36.55-69.97-9.61-1.89-35.76-6.64-35.03-5.97 1.73 5.79 31.02 52.36 38.25 64.43 2.86 4.51 3.1 4.69 6.75 5.91 6.72 1.67 23.97 7.2 26.58 5.6zm525.83-8.71c6.26.61 52.17-74.05 48.95-69.3-1.04.15-11.82 4.09-14.41 4.93l-40.93 65.83c-.5 1.85 2.11.57 4.35-.52.77-.37 1.5-.73 2.04-.94h0zm-584.03-35.44l-20.49-33.86c-4.43-1.39-11.24-3.65-14.53-4.32l1.1 1.64 41.59 65.52c1.16 1.22 12.47 5.97 12.71 5.36.05-.23-9.07-15.7-20.38-34.34zm630.37-37.57c8.04-3.16 8.48-4.48 12.05-15.23 1.8-5.42 4.4-13.24 9.17-24.9 9.79-26.79 14.84-41.41 14.23-41.41-1.04.06-13.26 2.07-16.42 2.62l-27.67 80.99c.3.55 2.01.12 8.64-2.07zm-653.05-2.25c0-.79-25.91-78.31-26.64-79.65.37-1.22-10.76-3.41-17.15-4.08 3.06 11.02 16.64 50.32 24.35 71.3 1.36 3.7 2.06 5.61 3.37 6.92 1.14 1.38 5 2.68 8.77 3.99 5.96 2.07 7.3 2.37 7.3 1.52h0zm284.11 480.15c-.49.85-1.89 1.71-3.77 2.26-13.49 3.62-44.13 1.79-33.26-20.34 2.55-8.47 26.45-9.08 31.93-6.46 2.37 1.22 4.68 4.08 5.59 6.82.9 2.74.54 15.77-.49 17.72zm1.3-62.88c.44 8.14 1.43 26.52-2.52 27.08-7.36 2.25-33.69.97-37.34-4.63-8.27-7.86-4.2-26.25 7.05-29.54 1.64-.54 6.75-.79 14.96-.73 16.9.32 17.39-.32 17.85 7.82h0zm140.93 5.52c9.06 17.48 10.82 53.04-11.55 57.18-27.91 8.71-41.35-28.62-36.24-52.92 4.62-28.44 37.64-28.74 47.79-4.26zm-276.14-2.98c0 1.76-6.14 12.97-14.47 26.3-3.89 4.85-5.22 12.23-6.2-2.31-1.03-8.59-2.31-23.26-1.76-29.29.18-.37 3.89.18 9 1.22 11.97 2.55 13.43 2.98 13.43 4.08h0zM749.5 1499c413.94 0 749.5-335.56 749.5-749.5S1163.44 0 749.5 0 0 335.56 0 749.5 335.56 1499 749.5 1499zm71.22-1320.7c-14.23-8.34-38.19 29.65-17.27 36.48 8.36 2.47 15.06-6.11 20.28-12.79 6.88-9.64 5.85-19.61-3.01-23.69zm-40.2-10.9c-7.6 8.71-19.82 25.7-4.2 32.58 11.49 6.88 24.08-17.11 25.24-22.96 0-4.08-4.93-10.05-9.61-11.57-3.16-.73-9.12-1.04-11.43 1.95h0zm-27.36-7.55c-6.33 5.18-9.06 22.23.55 25.94 7.84 2.01 16.72-8.65 19.34-16.26 2.07-7.67-4.26-14.8-11.74-13.34-2.62.49-6.51 2.26-8.15 3.66h0zm84.77 156.01c-5.29-2.56-8.7-3.77-10.95-4.02-3.1-.3-4.5-.06-16.9 2.86-6.2 1.46-10.95 2.13-10.95 1.58 0-.79 4.92-11.2 7.9-16.81 10.28-19.06 11.07-20.7 10.64-22.41-11.98-18.82-33.2-12.91-48.16 4.51-4.81 4.81-9 8.65-9.43 8.46-22.51-.2-52.59-14.29-80.03-31.97-8.07-13.05-28.26-49.16-25.66-49.69-1.03-1.64 7.24-9.99 10.22-10.47 4.99-1.52 5.23-1.28 19.28 17.42 14.65 19.43 16.9 22.04 18.91 22.04 2.92 0 1.89-1.83-10.7-19.24-18.85-25.94-19.52-27.4-14.23-32.64 4.2-4.2 10.46-6.21 14.41-4.57 2.37 1.04 6.14 5.85 18.73 23.81 6.63 9.56 12.28 16.2 13.68 16.2 2.61-1.51-2.75-8.94-7.26-15.19-12.46-17.64-27.19-35.65-1.25-37.55 3.53.91 7.9 5.78 18.91 21.07 8.45 11.75 12.95 16.26 12.95 13.03 0-.55-3.95-7.06-8.76-14.43l-1.18-1.83c-9.11-14.13-10.43-16.18-9.94-17.61 5.13-7.54 8.03-7.69 15.49-3.64-6.75 15.1 2.13 32.4 19.4 26.85.18 4.45 2.74 9.32 6.81 12.61 2.31 2.68 11.13 2.19 14.41 1.52 3.47-.91 3.83-.61 6.2 4.45 9.77 19.62 24.76 10.89 36.55-2.43 13.44 14.68 30.34 27.77 47.31 35.99l-28.28 75.81c-.22 0-3.86-1.7-8.12-3.71h0zm280.46-7.07c-1.34-.49-3.65-2.74-3.65-3.53.03-1.03 2.5-5.4 3.59-7.43-5.76-.27-15.98-.56-19.4-1.7-22.01-6.7-29.92-30.75-22.01-52.07 12.18-36.66 61.21-53.73 79.64-14.68 1.36 2.43 1.87 3.35 3.73.43 2.12-4.88 5.77-1.11 9.12 1.77-4.48 6.86-11.61 17.62-14.41 22.77-4.02 7.13-7.73 9.2-10.4 5.79-4.06-6.69 5.33-14.53 3.59-22.23 0-8.77-3.77-14.92-11.31-18.51-38.62-17.13-77.05 60.19-29.68 69.66 8.7.91 15.75-2.92 20.62-11.14 4.68-6.46.36-9.8-4.08-12.54-5.47-2.56-6.45-8.46-.67-9.74 1.73.44 8.6 4.85 14.88 8.88 7.48 5.59 17.67 8.8 19.36 13.71-.91 9.01-8.51 1.77-13.08 1.16-7.17-1.35-18.7 31.84-25.84 29.4h0zM840.48 213.8c-5.47-5.85-8.51-9.74-9.3-11.93.61-5.97 11.37-10.29 17.39-7.49 11.68 5.85 5.96 19.49-2.01 25.33-.3 0-3.04-2.68-6.08-5.91h0zm278.39 463.16c.75 9.18 1.34 16.58 6.63 20.16 2.9-29.25-21.06-83.79-34.9-124.29l-46.1-73.07-63.48-61.14c-34.49-19.14-77.03-49.2-109.82-56.51-100.87-34.43-171.62-24.93-264.95 5.24-14.18 3.96-69.07 37.73-91.09 50.05l-62.33 59.55-42.35 66.82c-8.05 12.35-7.9 12.36-13.03 27.26l-17.84 49.75c-7.12 19.25-7.27 20.71-8.74 34.11-.18 3.48-.74 6.21-1.18 10.59-.74 4.82-1.83 11.88 1.34 8.88 4.63-.96 6.38-27.79 8.21-35.5.24-.24 15.51-3.1 16.72-3.17.85 0 .91.91.18 8.4-.43 4.57-.67 8.59-.61 8.95 4.56-.8 5.38-10.29 6.08-17.9 7.93-1.09 23.2-1.82 26.27-6.88-6.42.26-18.88 2.01-24.45 1.71 3-13.41 20.67-62.44 27.43-82.45.43-.37 13.8-2.68 25.6-4.38l9.85-1.52c2.51-.7.28 6.48-2.92 16.8-3.88 11.82-7.28 26.64-11.23 38.97-4.15 13.63-7.06 23.16.28 11.88.73-1.46 3.04-8.53 5.17-15.65 14.05-47.56 15.75-52.92 17.03-53.22 9.65-1.11 41.15-3.89 56.19-5.24-2.13 9.2-6.75 30.75-6.57 31.73 2.98 6.87 9.53-24.1 10.64-29.35 0-3.39 13.13-3.78 30.65-4.31 16.91-.94 44.21-.19 58.91-6.35l1.23-.43c-.05-.57-11.25-.5-9.97-2.13-.34 1 20.35-73.31 20.01-72.28.67-.36 52.48-2.38 71.7-2.8-1.53 12.11-2.66 26.68-4.08 40.31-1.7 17.11-1.82 19.3-.73 19.67 5.19 1.95 4.81-20.87 6.54-32.97 1.07-11.6 2.11-22.87 2.77-25.62.85-.91 10.52-1.16 39.77-.97l33.81.61c1.58.49 1.7 1.34 2.98 22.53.77 10.02 1.7 25.06 4.14 31.97 5.35 7.76 1.38-21.71.73-29.72-.66-5.38-1.48-20.88-2.25-25.39 17.45.67 76.41 2.41 71.51 3.84.12.24 3.47 12.12 7.36 26.31 8.33 30.39 11.67 41.53 12.65 42.14l.47.16c2.29.78 2.43.83 1.18-4.66-2.31-10.03-17.13-65.05-16.42-64 27.77.2 26.21 2.08 56.25 4.2 5.05.43 5.66.73 6.63 2.56 2.25 4.45 28.95 69.79 28.95 70.94-4.84 1.59-47.01-3.35-49.44-.79 3.67 4.63 40.23 4.46 50.9 7.12 3.43 1.52 3.61 19.53 8.76 19.97.4.12.73.22.92.11.55-.32.1-2.39-1.71-10.6-.14-.69-.33-1.43-.46-2.05-1.3-6.74-2.6-7.84 3.44-7.22 21.45 1.62 26.5 2.54 43.54 4.61 7.17.79 8.15 1.1 9 2.8.31.65 3.77 12.51 7.44 25.1l9.04 30.37c.97 2.31 4.8 6.27 5.41 5.6.12-.12-3.04-11.81-7.11-26-8.09-28.5-9.86-35.2-9.49-35.87.04-.41 1.22-.32 6.99.61l28.04 4.93c1.27.73 4.8 10.29 14.53 39.89 10.76 32.64 13.87 42.57 13.5 43.17-.73.73-11.05-.15-14.41-.24 5.51 7.23 15.5 2.14 16.72 9.26-.12 3.96 2.62 7.8 5.35 10.54l-.67-13.21c4.93.55 15.63 2.68 16.42 3.29 1.49 3.14 1.97 8.72 2.47 14.42h0zM107.04 577.52c3.16 18.88 23.6 30.08 42.26 32.88 65.62 9.93 68.47-74.29 2.43-78.92-31.13-3.65-49.31 18.7-44.69 46.04zm1175.86-30.83c7.72 16.81 11.1 24.16 25.34 28.95 18.31 4.02 30.29-10.29 29.68-27.71 10.15 6.58 21.22 7.92 29.61-.43 4.44-4.14 5.66-6.7 5.66-11.93 2-7.61-19.28-51.21-25.85-63.76-1.33-1.28-1.58-1.28-4.07-.49-7.93 1.67 5.14 12.72-.55 17.23-11.63 8.35-38.84 19.3-54.79 26.49-7.48 3.04-8.33 2.92-10.88-1.34-4.26-7.06-5.11-8.1-6.82-8.28-2.31-.3-4.07 1.4-4.07 3.84.81 3.64 4.23 10.66 7.44 17.25 3.89 7.83 6.09 13.42 9.3 20.18h0zM218.32 512.12c-2.25 5.12-2.07 6.88.85 7.73 4.16 1.3 4.56.34 6.82-5.08 4.22-12.27 25.3-48.68 23.04-57.27.49-22.9-23.05-34.59-39.89-20.52-2.99 2.35-4.16 4.07-3.65 1.4 0-15.53-14.84-25.76-29.19-19.36-10.78 2.5-21.62 37.98-29.01 51.09-3.04 5.91-5.53 11.33-5.53 11.94 0 1.46 3.28 4.38 4.86 4.38 5.38-3.14 5.85-14.49 13.13-12.06 2.8.73 17.09 6.94 32.78 14.19 6.11 3.09 11 5.36 14.85 7.15 13.78 6.38 14.37 6.66 10.94 16.41h0zm1009.65-95c-7.6 21.07 10.4 45.85 32.11 47.98 14.35 2.13 34.97-9.74 45-20.09 15.32-14.31 17.51-38.73 3.28-53.59-24.56-29.16-70.48-2.06-80.39 25.7h0zm-954.89 3.27c-2.11 3.33-4.32 6.81-1.98 9.53 3.83 3.05 6.63-.79 11.07-7.92 2.68-4.26 7.36-10.9 10.46-14.74 2.73-4.76 10-8.64 4.5-13.76-3.56-3.96-9.07 7.29-11.98 9.74-1.89 1.16-4.26-.37-7.66-4.81-7.42-9.68-7.85-11.02-5.29-16.08 4.42-6.56 13.3-21.87 18.24-20.77 2.19 0 18.91 5.18 19.4 6.03.18.24-1.22 2.92-3.04 5.85-4.62 7.31-5.05 8.53-3.22 10.41 3.16 3.41 5.59 1.58 13.01-9.74 3.49-5.33 7.21-10.51 11.13-15.53 6.2-7.79 6.81-9.26 5.11-11.57-2.76-6.2-11.84 7.15-15.51 8.65-.61.24-14.96-3.41-32.84-8.4-36.67-10.11-45.85-12.48-48.41-12.48-4.87.97-9.61 6.64-5.53 12.54 1.65 4.25 49.64 74.16 44.39 69.91-.56 1.08-1.17 2.13-1.85 3.14h0zm910.25-46.59l12.17 11.73c3.72 3.94 7.42-.94 10.76-4.26 2.98-3.71 13.2-14.55 17.88-19.49-5.88-5.97-6.08-7.28-14.41 1.64-6.93 7.19-10.52 9.56-13.38 8.83-7.18-2.74-20.62-16.56-24.75-21.68-3.11-3.68.6-7.59 8.65-16.07 3.12-3.29 6.89-7.26 11.17-12.18 25.91-27.83 26.15-28.01 33.39-22.23 5.41 4.32 8.09 4.81 9.61 1.64 1.21-2.56-.31-4.99-6.69-10.17-3.04-2.5-9-8.04-13.26-12.24-8.97-8.8-13.13-13.71-15.2-5.18-.06.45 1.85 2.85 3.88 5.4 2.32 2.91 4.79 6.01 4.63 6.6 0 .55-1.21 2.62-2.67 4.63-5.9 7.79-38.38 41.83-42.88 44.88-3.83 2.56-4.25 2.5-9.54-1.4-3.96-2.86-8.2-6.71-9.98-.73 0 1.89 4.44 6.82 11.38 12.54 3.38 2.59 18.18 16.98 29.24 27.74h0zm-835.66-35.47c-4.56 4.75-4.86 6.03-2.25 8.71.97.98 2.13 1.77 2.49 1.77s7.05-6.21 14.78-13.82c8.01-7.89 16.24-15.54 24.69-22.96 16.11-13.88 17.03-15.1 14.9-19.55-4.14-6.36-15.49-17.32-21.59-24.11-6.09 3.6-9.11 4.65-.67 13.15 11.92 13.28 11.86 14.37-1.28 27.46-11.13 11.08-14.47 13.09-18.61 10.96-3.16-1.64-39.47-40.31-43.3-46.16-3.69-3.51-.55-7.11 2.42-10.51 2.85-3.27 5.53-6.35 1.84-8.97-3.68-3.43-11.3 7.35-15.51 10.41l-14.11 13.52c-4.74 4.38-5.41 6.21-3.16 8.46 1.64 1.64 3.77 1.52 5.9-.18 7.24-6.03 9.55-6.94 12.59-4.99.79.55 7.72 7.61 15.38 15.71 18.96 19.42 32.16 34.4 29.22 36.19-.34 1.56-2.14 3.25-3.73 4.91h0zm372.21-14.51c3.36 2.03 6.75 4.08 10.23 5.92.21.1.54.18.97.26 1.43 1.12 40.97-.93 53.76-1.9 4.03-3.62 9.52-15.88 14.6-26.18 5.41-11.57 8.21-16.87 10.15-19.43 3.28-4.32-.73-8.95-9.12-10.47-13.8-2.68-26.27 11.27-32.59 23.63-3.96 7.38-4.05 6.59-4.3 4.45-.16-1.41-.39-3.4-1.84-4.03-4.74-.67-6.57-.85-10.34-1.16-23.29-.3-58.26-20.16-74.49-32.94-2.25-2.07-5.23-3.11-10.22-3.59-5.65-.61-5.78-1.77-.18-3.41 1.4-.43 2.74-1.1 2.92-1.52.42-1.1-14.23-29.53-15.69-30.39-1.28-.79-3.22.67-8.09 6.15-6.25 8.32-18.38 14.59-27.55 19.85-3.65-4.14 35.39 73.13 35.39 71.49 25.11-11.81 41.6-13.09 66.39 3.27h0zM252.2 917.92c-96.43-254.97 53.81-571.11 308.19-658.03.79 0 .91 2.74.91 21.5 0 11.75-.24 22.77-.43 24.36l-.43 2.92c-214.7 83.67-341.05 357.81-270.12 580.9-.66 2.35-2.69 4.33-6.69 8.22l-28.04 27.68c-.29 0-1.81-3.41-3.39-7.55h0zm990.49 5.18c-2.98-1.22-33.02-30.08-33.69-34.28 0-.67 1.46-6.88 3.28-13.82 64.04-219.1-54.97-470.65-262.22-561.57-8.09-3.47-10.4-5.42-10.82-9.07-.28-4.41-.86-32.62-1.03-45.12 255.77 87 403.14 400.11 312.02 655.29-3.53 10.33-3.96 10.82-7.54 8.57h0zM113.91 838.94c-28.03-4.14-45.18-31.85-30.53-57.42-3.09-.28-8.58.89-8.33-3.84-.36-3.47.97-4.39 7.84-5.42 6.23-1.06 15.7-2.16 22.2-3.33 4.81-.97 7.95-1.6 8.08 3.82 0 3.71-1.52 4.93-8.21 6.64-33.87 9.19-15.45 49.63 13.38 48.65 57.47 1.22 58.86-64 12.77-51.4-.37 3.62.62 17.34-1.89 16.68-2.25.61-4.86 1.58-5.9-1.64-2.28-5.4-2-17.94-4.1-26.6-1.86-9.72-3.93-15.18 5.81-13.47.73 3.01 2 8.93 3.16 10.17 1.46 1.64 10.64 1.4 21.16-.49 14.25-2.6 18.95-3.68 18.12 4.51-2.76 4.35-12.13.56-4.13 8.83 29.08 35.33-12.09 71.25-49.43 64.31h0zm1209.41-45.97c-3.95-.73-4.01-.79-4.74-3.71-1.82-.12-2.94-52.49-3.71-64.73-.91-8.28.24-11.39 3.83-10.6 2.92.61 3.47 1.52 3.83 6.7.43 5.66 1.4 7.98 3.71 8.59 1.83.55 32.96.49 36.12-.06 6.87-.56 31.73-.83 31.32-3.17 3.04-.61 3.16-4.63 3.27-8.57.12-4.25.24-8.4 4.03-8.12 3.4 0 4.5 6.33 5.35 31.06.18 5.18.49 9.99.67 10.72.12 5.36-9.37 7.67-8.27-1.52 0-4.63-1.34-7.85-3.65-9.01-5.23-1.89-59.29.12-69.99 3.53 1.44 14.09-5.47 43.01 14.53 38.85 12.28-.3 12.77-.24 14.41 1.28 1.7 1.64 2.13 5.48.67 6.64-6.2 2.42-27.67 2.3-31.38 2.12h0zM164.69 726.65c-3.1-4.62 2-15.2-6.57-15.77-8.45-1.64-55.28-4.08-66.47-1.58-1.12.19-2.14 12.73-3.1 13.52-.78.54-5.09.49-6.99.49.3-11.94 1.58-41.16 2.31-42.93-.12-2.63 5.28-1.89 7.54-2.19-.08 3.56-1.45 13.46.43 14.13 7.26 4.74 26.87 4.9 47.49 5.06l21.41.36c7.48 3.23 4.81-35.81 3.89-36.17-1.4-3.35-4.07-4.2-15.51-4.93-8.33-.67-13.99-1.28-10.52-8.22 1.28-1.58 2.37-1.64 20.19-.91l12.47.49c4.46 4.4 5.41 4 3.95 14.74-1.03 9.01-1.7 19.24-2.74 45.67-.49 12.24-.91 17.6-1.46 18.15-.91.7-5.53 1.55-6.32.09h0zm1153.99-40.84c-1.26-5.75-2.48-11.32-3.57-13.96-2.79-8.22-2.98-10.9-.73-12.85 4.68-4.28 6.31 1.89 7.64 6.95.81 2.43 1.55 7.71 4.16 6.51 2.07-.49 13.74-7.37 15.75-9.26 3.77-.49-1.03-24.54-5.78-32.76-3.71-1.16-16.42-1.71-22.68-1.52.41 5.29 6.1 19.05-1.76 18.27-3.04 0-3.35-.79-6.14-15.53-.72-5.11-8.73-27.15-4.63-26.73 5.4-2.46 6.01-.54 7.72 4.89 1.12 8.21 10.61 6.53 16.79 7.84 16.06 2.21 35.57 4.16 51.99 6.15 8.22 2 18.25-.34 21.65 8.59 1.22 4.63-2.31 8.77-13.44 15.89-14.96 9.62-45.79 30.63-51.14 34.89-6.02 4.75-6.63 6.15-4.8 14.8 1.94 5.3-2.19 8.95-5.66 5.85-1.71-1.33-3.58-9.88-5.37-18.02h0zm-956.17 62.4c230.27 256.27 561.25 264.88 768.47-1.52-209.38-279.62-549.63-242.96-768.47 1.52h0zm775.95 430.89c-8.82-3.78-10.34-21.07-9.12-28.32 1.52-5.66 9.42-10.59 14.53-9.13 8.21.06 15.51 26.49 10.4 32.82-2.8 4.02-11.5 6.52-15.81 4.63zm27.06-12.12c-7.91-2.44-11.98-23.32-4.81-28.99 20.13-11.38 28.22 34.65 4.81 28.99zm-861.09-18.75c-8.57-2.99-10.82-11.76-4.68-18.33 2.13-3.66 15.69-3.96 22.5-3.78 15.35 11.28-5.55 26.72-17.82 22.11zm429.33-14.32c-39.89-2.25-91.46-15.58-140.11-32.51l-80.03-46.16-31.08-30.14c-30.22-29.23-31.2-30.33-35.21-36.72-11.95-18.72-37.84-57.15-42.26-68.69-8.08-15.93-14.85-35.57-21.33-54.36-8.33-23.54-14.46-41.74-14.25-64.69 5.31 2.81 5.7 5.97 7.15 17.58l1.85 15.67c.3.37 15.2 3.29 16.54 3.29 1.76 0 1.76-.31.91-8.22-.55-5.18-.3-6.15 1.28-4.99 1.7 1.28 2.86 4.26 3.59 9.44.61 3.9.97 4.99 1.76 5.05 3.09.25 4.33.58 7.97.79 4.13-.3 18.67 6.52 8.21 5.05-5.72-.55-14.84-.67-15.33-.18-.36.36 25.78 80.08 26.58 80.99 7.53 2.59 33.75 6.4 36.4 6.25.64-.37-.16-3.22-7.28-28.49-2.35-8.12-4.77-18.08-7.25-25.79-3.22-10.82-5.25-16.88-.2-10.97 1.5 1.56 2.19 3.9 9.3 28.03l3.56 12.09c7.07 24 7.76 26.31 8.92 26.58 14 1.61 51.36 6.2 55.67 5.1.06-.1-1.51-7.76-2.9-14.29-2.87-13.75-2.92-13.97-1.72-13.96 3.75-1.28 7.77 21.41 9.73 29.11 2.38.86 34.3 2.6 43.74 3.12 15.38.71 28.79 1.33 38.12 6.81.02.72-1.8.36-1.82 1.03 0 .3 18.3 71.98 18.55 72.4-3.53.43 45.91 2.5 71.21 3.35l-2.49-32.09c.07-5.74-5.04-33.16 1.46-26.61 2.42 9.02 4.12 48.98 6.39 58.46-2.01.42 81.12 1.4 73.95 0 .35-5.61 3.81-36.64 4.86-47.07.91-7.92 1.58-10.47 3.1-11.33 2.31-1.22 2.49 0 1.46 8.95-1.5 12.64-2.65 25.18-3.61 35.65l-1.31 13.86c13.48 2.02 54.3-1.37 70.85-1.16 5.59-16.81 15.39-56.6 21.1-74.35 3.04-3.41 19.34-5.36 56.8-6.64 20.19-.73 22.32-.97 22.74-2.38 1.28-5.79 6.93-27.83 8.39-27.46 2.98-2.74 2.98-1.46.12 10.6-2.74 11.75-3.83 17.41-3.34 17.41l48.71-3.96c6.88-1.41 7.92 1.86 9.8-7.13 2.49-7.72 18.37-67.93 23.64-64.73.42-.42-20.44 69.2-20.19 68.81-.24 1.4-.06 1.4 9.85-.06 13.81-2.13 26.27-4.39 26.76-4.87.55-.61 4.93-12.97 18.91-53.77l9.06-26.98c-.91-.97-20.31-.31-23.41.91 4.51-6.44 14.96-5.64 22.5-7.06 4.68 1.98 3.77-17.12 7.36-18.51 2.19-1.71 2.68-1.34 2.07 1.46-.91 4.2-1.4 15.22-.67 15.65 1.36.52 12.93-1.22 15.59-2.98 1.07-.42 1.68-4.42 2.71-13.09 1.28-10.11 2.56-17.9 3.65-21.92.61-2.13 4.87-6.33 4.87-4.75-1.03 10.38-2.37 19.98-4 31.74-1.08 8.06-1.06 8.13-17.04 51.5l-16.06 43.54-23.05 34.97-25.96 39.39-64.16 59.62c-29.31 16.99-94.07 52.24-92.68 49.5-50.57 13.27-107.6 29.77-149 25.31h0zm-443.31-10.23c-4.44-1.88-5.96-7.18-6.38-12.48 0-8.71 4.5-11.45 22.38-13.4 9.97-2.37 16.91 5.67 15.33 14.13-1.96 12.3-23.97 13.7-31.33 11.75zm766.16-10.9c-1.89-.85-2.86-2.55-3.65-6.45-.91-5.13-12.49-36.28-14.6-43.78-.28-3.95 1.21-4.04 16.78-22.29h.01c12.64-14.43 17.87-19.91 20.37-21.19 28.93-5.96 51.36-16.32 60.48-47.61.13.15 4.18 1.25 10.4 2.94 17.94 4.86 53.9 14.62 65.94 20.67-.48 1.4-5.29 16.26-6.5 20.21l.3 6.09c-.19 3.08 2.34 18.94.06 17.97-2.86 0-31.38-8.59-32.78-9.81-.7-.25-.09-2.07.52-3.88 1.02-3.02 2.04-6.02-3.01-1.84-3.28 2.68-5.72 3.53-16.3 5.78-14.9 3.17-37.52 9.93-47.79 14.25-4.99 2.13-7.12 3.59-21.05 14.8-4.74 3.77-8.81 6.88-9 6.88-.23.03-1.06-.55-2-1.21-1.29-.89-2.78-1.92-3.16-1.71 4.19 12.54 7.48 30.57 1.52 41.16-3.23 6.41-11.8 11.09-16.54 9.02h0zM1136 971.46c-.01-.01 0-.01.02-.02l-.02.02zm-852.55 124.76c-13.01-3.59-13.93-19.12-1.46-24.72 11.19-5 34.48-4.26 31.26 11.99-1.09 9.14-22.07 15.47-29.8 12.73h0zm-8.02-30.93c-20.68-7.07-6.75-28.81 9.97-24.06-.21 6.28-.49 18.18-1.4 21.56-.65 4.92-5.25 2.94-8.57 2.5zm393.26 310.13c-19.22 12.79-12.04 38.97 13.14 38.97 14.35 1.04 53.27.67 55.28-.54.91-.55 1.76-4.57 1.22-5.48-.3-.49-2.92-.98-6.69-1.28-6.99-.61-8.33-1.1-8.94-3.47-.67-2.26-.61-57.06 0-62.97.73-6.88 1.22-7.24 8.7-7.67 8.09-.18 9.67-.91 6.87-8.47-13.8-.36-37.22-.91-48.59-.18-20.74 1.1-21.47 1.34-29.61 9.68-9.3 9.5-8.51 23.69 1.89 33.44 2.68 2.76 5.23 4.07 6.86 4.91 2.11 1.09 2.66 1.37-.13 3.06zm133.18-45.97c-24.2 23.38-8.39 79.83 23.41 84.64 40.07 2.44 51.81-35.2 38.55-68.2-5.35-13.52-15.45-23.63-25.66-25.76-12.28-1.83-27-1.1-36.3 9.32zm-256.99 48.83c.61 5.61 1.64 7.68 4.86 9.38 8.58 2.84 10.78-.72 18.09-12.61 5.83-9.99 20.48-30.09 26.3-40.43 7.73-12.73 11.83-19.48 19.03-17.23 5.23.97 6.93 1.16 7.18-4.57 0-2.07-.24-2.49-1.34-2.74l-11.43-2.19a251.18 251.18 0 0 1-17.58-4.02c-5.05-.48-11.52-5.47-13.26 1.77-.31 2.19-.31 2.25 2.31 3.41 1.46.67 5.05 1.76 8.03 2.55 6.33 1.59 6.33 1.71 3.16 8.35-1.19 1.96-2.12 3.69-2.93 5.18-4.38 8.08-5.1 9.4-21.88 5.6-11.49-2.56-13.74-3.48-15.14-6.4-1.1-2.25-1.95-10.47-1.76-17.23.06-2.07.36-2.98 1.03-3.29 1.45-.41 10.71 1.77 13.8 2.5 5.53-6.34 4.5-8.41-11.13-10.9-7.97-1.35-15.85-3.18-23.6-5.48-5.11-1.46-5.78-1.59-6.99-.73-2.86 2.98-4.56 7.06 2.37 8.09 6.99 1.77 8.7 2.62 9.97 5.12 1.83 1.52 9.14 60.23 10.91 75.87h0zm424.89-6.69c-.49 1.21.85 5.05 1.95 5.72 1.67 1.49 11.23-3.03 19.44-6.95 6.67-3.27 9.59-4.32 13.97-5.94 8.97-3.51 9.15-3.58 5.68-10.8-4.43 2.32-14.71 5-16.6 2.62-4.19-8.09-27.06-51.95-24.99-65.7 3.49-2.08 12.13-6.45 11.74-9.02 0-2.49-4.44-2.98-9.79-1.09-20.01 8.77-20.93 10.28-48.77 21.07-26.9 8.88-11.67 13.99-5.4 35.24 1.84 4.79 2.63 6.85 8.2 4.03 6.74-2.73-9.47-22.32-3.04-28.07-.55-1.64 28.34-16.74 33.08-13.27 6.93 10.71 24.08 53.83 26.45 59.92 3.37 6.86-8.18 8.77-11.92 12.24h0zm-515.12-23.26c3.96 2.35 10.87 5.6 12.08-1.65 1.14-2.12-3.36-3.14-5.92-4.65-4.96-2.47-7.59-3.77-4.6-11.73 3.04-8.89 20.62-47.07 24.45-53.04 3.28-5.11 4.2-5.36 11.13-2.92 5.57 1.93 8.47 3.05 9.37-2.68 0-1.65-4.01-3.78-17.94-9.74-10.26-3.6-44.49-22.44-51.63-22.84-2.98-.09-4.48 3.68-6.13 7.8-1.87 4.55-4.32 10-6.41 13.82-1.28 2.43-2.47 4.65-3.33 7.06-.73 3.17 2.19 6.03 6.08 6.03 1.22 0 2.07-1.34 6.38-9.74 2.86-5.61 5.66-10.29 6.57-11.03.91-4.56 25.78 6.15 34.48 12.24 2.01 2.26.85 6.15-6.57 22.66-10.15 22.47-17.03 37.02-18.91 39.94-2.16 6.04-11.71.61-16.91-.73-1.52 1.97-5.07 4.13-2.31 6.52 1.46 1.83 6.2 4.2 13.26 6.58 3.43.97 11.55 5.29 16.86 8.1h0zm613.98-23.51a77.58 77.58 0 0 0 5.55 7.92c2.13 2.19 4.74 2.55 6.99.97 2.81-1.02-.02-6.04-1.09-8.34 43.54-.25 49.8-48.72 23.53-76.36-21.59-25.03-57.95-19.25-67.13 10.35-1.39 8.24-6.56-6.17-11.5-.61-7.31 4.54 19.53 27.72 16.79 34.1.47 6.31-9.43 5.32-6.27 12.18 1.58 3.9 3.96 2.92 15.75-6.21 3.89-5.02 25.25-12.45 19.4-18.94-1.7-1.83-3.89-1.46-8.81 1.52-5.9 3.53-7.85 3.59-10.77.49-18.84-21.41 6.06-46.53 29.92-35.2 21.16 10.05 43.97 52.13 13.26 66.8-3.71 1.83-4.62 2.01-9.61 2.01-7.62 1.15-13.16-4.69-18.76-10.58a135.84 135.84 0 0 0-3.74-3.85c-1.16-.67-5.78 3.41-5.78 5.12-.92 1.3 9.91 14.3 12.27 18.63h0zm-523.08-103.34c128.97 59.48 299.05 58.74 424.46-5.42-1.09-1.66-25.72-30.95-33.08-35.8-106.48 47.49-248.6 48.83-357.45 5.78-11.43 10.6-35.02 34.41-33.93 35.44h0zm528.45-41.89c-6.08 2.68 1.82 16.62 8.02 19.48 9.2 4.99 18.09-11.28 14.6-17.96-1.89-1.89-19.58-3.11-22.62-1.52zm26.69-8.65c.18 18.01 15.19 27.21 27.13 12.66 1.15-16.44-4.38-35.8-17.88-32.7-8.15 1.53-10.34 6.22-9.25 20.04h0zm-705.65 2.43c-1.15 7.74-.97 9.93 4.93 12.73 15.03 1.61 15.88-1.71 20.08-18.04l9.66-35.55c-2.98-20.7-16.36-63.87-34.72-80.68-14.41.24-36.06.43-41.65-7.55-6.63-5.91-10.64-16.57-6.81-24.12 5.13-2.68 35.07-11.32 41.53-13.94-2.95-2.04-5.96-3.9-8.87-5.7-9.35-5.78-17.62-10.9-19.11-19.02-3.47-9.62-3.77-10.35-4.44-10.35-1.52 0-71.94 31.79-73.22 33.07 6.14 17.48 9 38.3 7.97 59.19 7.48-.12 20.98-.12 24.14 3.77 5.51 4.85 7.08 16.88 2.53 23.15-1.33 2.09-1.98 2.2-.21 3.15 12.12 6.13 15.26 16.43 7.96 26.56 13.92 7.61 10.76 23.69-1.95 30.51-6.63 2.37-.49 11.69 4.62 11.63 5.53.67 6.75-1.64 10.34-19.61 1.33-4.19 3.06-21.95 6.51-19.12.67 1.04.43 3.29-2.25 20.28-3.53 22.35-3.41 24.48 1.15 27.95 6.14 4.63 11.49 5.05 15.2 1.16 2.8-2.93 3.35-5 9-35.14 1.58-8.22 2.55-10.84 4.01-10.53 3.66-1.84-4.6 38.25-5.47 46.52-.43 2.68 1.03 5.24 4.13 7.49 5.17 3.35 14.35 7.06 16.97-.67 2.37-5.54 4.01-13.7 6.75-32.21 2.19-15.11 3.04-18.21 4.87-18.21 4.1-3.46-2.73 35.41-3.65 43.28zm37.35 3.48c12.41.03 24.82.81 31.78 4.94 1.58.77 2.11 1.02 3.85-.93 5.72-12.6 20.61-59.31 24.51-73.37-.12-1.04-1.03-1.65-4.14-2.68-33.11-12.16-34.62-29.04-44.27-61.57-10.06-8.94-31.15-29.77-40.8-35.56-7.67 1.81-41.48 13.9-48.65 15.53-2.62.55-3.35 2.37-2.86 6.58 4.01 21.8 34.84 16.98 50.05 11.02.18.18-.5 1.24-1.26 2.43-1.01 1.58-2.17 3.38-1.65 3.66 6.14 7.36 17.7 22.53 20.98 30.08 4.2 8.4 11.43 33.43 14.6 50.85 1.76 9.31 2.01 9.92 5.35 13.76 3.59 4.14 2.98 4.75-2.37 2.19-2.98-1.34-3.28-1.4-3.77-.43-2.9 8.4-11.72 30.5-8.88 33.25 1.8.13 4.46.19 7.53.25h0zm569.24-67.41c0 .54 20.56 44.63 28.89 61.92 2.98 6.09 5.53 11.09 5.77 11.09 17.58-6.82 37.89-9.5 58.2-8.53.23-5.55.54-16.91 1.34-19.54 2.92-11.88 20.98-11.94 28.4-5.55 3.04-12.84 16.17-16.62 27-10.29 6.2-12.12 23.23-11.81 29.92 1.16.97 1.7 2.25 3.41 2.79 3.71 6.68 1.77 14.23-10.39 4.44-14.37-1.21-.54-9.12-2.25-17.63-3.89-15.51-2.93-18.06-3.78-16.6-5.55.79-.97 5.47-.67 17.75 1.28 13.99 2.26 21.96 3.11 24.51 2.68 6.75-1.03 12.34-12.54 8.57-17.66.32-3.16-23.59-7.85-37.82-10.2-7.18-1.29-10.53-1.89-9.43-4.66.92-.91 7.73-.12 27.19 3.11 19.4 3.29 21.46 3.41 23.96 1.89 3.95-2.62 8.21-11.15 5.89-16.26-1.58-4.26-2.91-4.75-20.97-7.73l-31.02-4.88c-1.82-.18-2.13-.42-2.31-1.82-.68-3.39 7.46-2.16 17.48-.64l33.6 4.6 2.07-2.01c5.23-3.78 3.83-18.64-2.31-20.22-6.75-2.56-39.95-11.39-46.28-12.3-26.88.67-66.77 17.96-82.52 33.86.51 23.72 1.44 46.65-22.92 50.72-5.05.67-6.63.18-8.82-2.74-.61-.85-3.47-8.89-6.33-17.84-5.29-16.75-6.75-20.52-7.9-20.89-.43-.12-1.58 1.34-2.68 3.29-2.13 3.71-10.28 16.02-13.86 21.31-4.38 1.16-19.22 6.09-18.37 6.95h0z"/></svg>