<svg xmlns="http://www.w3.org/2000/svg" onclick="window.location='http://www.ScriptCompress.com';"><title>Canada JavaScript Logo Made by ScriptCompress.com</title><defs><filter id="z" color-interpolation-filters="sRGB"><feFlood flood-opacity="0.5" flood-color="rgb(0,0,0)" result="flood"/><feComposite in="flood" in2="SourceGraphic" operator="in" result="composite1"/><feGaussianBlur in="composite1" stdDeviation="3" result="blur"/><feOffset dx="6" dy="6" result="offset"/><feComposite in="SourceGraphic" in2="offset" operator="over" result="composite2"/></filter><filter id="x" color-interpolation-filters="sRGB"><feFlood flood-opacity="0.5" flood-color="rgb(0,0,0)" result="flood"/><feComposite in="flood" in2="SourceGraphic" operator="in" result="composite1"/><feGaussianBlur in="composite1" stdDeviation="3" result="blur"/><feOffset dx="4" dy="6" result="offset"/><feComposite in="SourceGraphic" in2="offset" operator="over" result="composite2"/></filter></defs><path d="m148.7 12.9c-8.9 16.5-17.3 33.3-26.6 49.6-7.4 6.1-15.6-2.8-22.7-5.5-5.5-3.6-9.7-5.5-6.4 2.7 4.2 23.7 9.2 47.4 13 71.2-1.7 14.3-14.1 1.5-18.3-4.5-8.4-9.5-16.8-19-25.2-28.6-2.7 7.1-2.9 15.6-7.5 21.8-7.9 2.3-16.2-2.2-24.2-3.1-7.1-1.5-14.1-3-21.2-4.5 4.2 16.3 9.4 32.4 12.7 48.9-2.1 6.4-10.8 6.9-16.1 10.5-6.2 2.1 5.3 6.4 7.2 9.5 20.5 17.1 41.5 33.6 61.6 51.1 3.9 8.2-2.3 16.7-3.8 25 2.3 6.7 22.7-2.2 31.8-1.6 13.3-0.7 28-7.1 40.6-3.2 4 6.1 0.7 14.1 1.3 21.1-0.8 19-1.6 38.1-2.4 57.1 4.3-1 13.8 3.1 11.6-4.3-0.6-23.3-1.2-46.6-1.7-69.8 6.9-12.6 26-0.6 38-1.6 11.4 0.7 28.7 6.4 36.4 3.6-1.7-8-6.4-15.7-5.4-23.9 6-8.7 15.9-14.1 23.6-21.2 16.4-13.5 32.8-26.9 49.2-40.4-6.1-3.5-13.8-5.2-18.6-10.2 1-12.6 6-24.7 8.8-37 0-3.7 5.6-12.7 2-13.1-13 2.8-25.9 5.5-38.9 8.3-9.1 0.4-8.1-10.7-10.7-16.8-0.5-9.2-4.4-3.2-8 1.1-9.3 10.3-18.2 21-27.7 31.1-12.7 6.6-9.2-11.6-7.3-18.8 4-21.4 8-42.8 12-64.2-8.6 3.8-16.4 10.2-25.8 11.8-2.5-0.1-4.6-1.8-5.7-3.9" id="path8" style="fill:#f00;filter:url(#x)"/><g transform="matrix(0.44255613,0,0,0.45338982,83.450886,74.865267)" style="fill:none;filter:url(#z)"><path d="M27.1 386.3 0.1 82.7l297.5 0-27.1 303.6-121.8 33.8L27.1 386.3Zm0 0" fill="#d4b830"/><path d="m148.8 394.2 98.4-27.3 23.2-259.4-121.6 0 0 286.7zm0 0" fill="#fdd83c"/><g transform="translate(55,142)"><path d="m195.6 75.5-52.5 0 0-38.1 55.8 0 3.3-37.2-98 0 0 112.6 50.8 0-4.5 48.3-46.3 8.4 0 38.8 81.1-18.5z" fill="#4d4d4d"/><path d="m83.8 0.1-83.2 0 3.5 37.3 42.3 0 0 126.7-20.7-3-2.7-29.7c0 0-24.9 0-37.4 0l5.2 58.5c92.9 18.5 0.4 0 92.9 18.5z" fill="#000"/></g></g></svg>